<svg width="719" height="200" viewBox="0 0 719 200" fill="none" xmlns="http://www.w3.org/2000/svg">
<path d="M97.9609 4.54547L38.5449 67.4258C32.3627 73.9684 34.9736 84.7617 43.4503 87.7047L66.0455 95.5495L41.2401 160.02L123.752 90.3949C131.249 84.0688 128.785 71.8855 119.429 69.0192L94.8264 61.4819L117.495 4.54547H159.091V121.491C159.091 136.757 155.754 150.296 149.08 162.109C142.406 173.921 133.117 183.19 121.212 189.914C109.307 196.638 95.5086 200 79.816 200C64.1234 200 50.2345 196.638 38.1493 189.914C26.2446 183.19 16.8651 173.921 10.0108 162.109C3.33694 150.114 0 136.484 0 121.218V4.54547H97.9609Z" fill="#FCFF04"/>
<path d="M695.436 197.321C692.302 197.321 689.203 196.92 686.141 196.118C683.152 195.316 680.346 194.186 677.721 192.728C675.17 191.197 672.983 189.447 671.16 187.479L680.674 177.856C682.423 179.751 684.501 181.246 686.907 182.339C689.313 183.36 691.937 183.87 694.78 183.87C696.749 183.87 698.243 183.579 699.264 182.996C700.357 182.412 700.904 181.61 700.904 180.59C700.904 179.278 700.248 178.293 698.936 177.637C697.696 176.908 696.092 176.289 694.124 175.778C692.156 175.195 690.078 174.575 687.891 173.919C685.704 173.263 683.626 172.352 681.658 171.186C679.69 170.019 678.086 168.415 676.846 166.374C675.607 164.26 674.987 161.599 674.987 158.391C674.987 154.965 675.862 152.013 677.612 149.534C679.362 146.982 681.84 144.978 685.048 143.519C688.256 142.061 692.01 141.332 696.311 141.332C700.831 141.332 704.986 142.134 708.777 143.738C712.641 145.269 715.776 147.566 718.182 150.627L708.668 160.25C706.991 158.282 705.096 156.897 702.982 156.095C700.94 155.293 698.936 154.892 696.967 154.892C695.072 154.892 693.65 155.184 692.703 155.767C691.755 156.277 691.281 157.043 691.281 158.063C691.281 159.157 691.901 160.032 693.14 160.688C694.379 161.344 695.983 161.927 697.951 162.437C699.92 162.948 701.997 163.567 704.185 164.296C706.372 165.025 708.449 166.01 710.418 167.249C712.386 168.488 713.99 170.165 715.229 172.279C716.468 174.32 717.088 177.018 717.088 180.371C717.088 185.547 715.12 189.666 711.183 192.728C707.319 195.79 702.07 197.321 695.436 197.321Z" fill="#011627"/>
<path d="M642.417 197.211C636.658 197.211 631.518 196.045 626.998 193.712C622.551 191.306 619.052 187.989 616.501 183.761C613.949 179.533 612.673 174.758 612.673 169.436C612.673 164.114 613.913 159.376 616.391 155.22C618.943 150.992 622.369 147.675 626.67 145.269C630.972 142.863 635.82 141.661 641.214 141.661C646.463 141.661 651.092 142.79 655.102 145.05C659.111 147.31 662.246 150.445 664.506 154.455C666.839 158.464 668.005 163.057 668.005 168.233C668.005 169.181 667.933 170.201 667.787 171.295C667.714 172.316 667.532 173.518 667.24 174.904L621.421 175.013V163.531L660.132 163.422L652.915 168.233C652.842 165.171 652.368 162.656 651.493 160.688C650.618 158.647 649.306 157.116 647.557 156.095C645.88 155.001 643.802 154.455 641.324 154.455C638.699 154.455 636.403 155.074 634.434 156.314C632.539 157.48 631.044 159.157 629.951 161.344C628.93 163.531 628.42 166.192 628.42 169.327C628.42 172.461 628.967 175.159 630.06 177.419C631.227 179.606 632.831 181.319 634.872 182.558C636.986 183.725 639.465 184.308 642.308 184.308C644.932 184.308 647.301 183.87 649.416 182.996C651.53 182.048 653.389 180.663 654.993 178.84L664.178 188.026C661.554 191.088 658.382 193.384 654.665 194.915C650.947 196.446 646.864 197.211 642.417 197.211Z" fill="#011627"/>
<path d="M588.696 196.008V165.718C588.696 162.948 587.821 160.724 586.072 159.047C584.395 157.298 582.244 156.423 579.62 156.423C577.797 156.423 576.194 156.824 574.809 157.626C573.423 158.355 572.33 159.448 571.528 160.906C570.726 162.292 570.325 163.895 570.325 165.718L563.873 162.547C563.873 158.391 564.785 154.746 566.607 151.612C568.43 148.477 570.945 146.071 574.152 144.394C577.433 142.645 581.115 141.77 585.197 141.77C589.134 141.77 592.596 142.718 595.585 144.613C598.647 146.436 601.053 148.878 602.803 151.94C604.552 155.001 605.427 158.355 605.427 162V196.008H588.696ZM553.594 196.008V142.863H570.325V196.008H553.594Z" fill="#011627"/>
<path d="M516.177 197.211C510.709 197.211 505.752 196.008 501.305 193.603C496.931 191.124 493.468 187.771 490.917 183.542C488.365 179.314 487.089 174.575 487.089 169.327C487.089 164.078 488.365 159.376 490.917 155.22C493.468 151.065 496.931 147.784 501.305 145.378C505.679 142.9 510.636 141.661 516.177 141.661C521.717 141.661 526.675 142.863 531.049 145.269C535.423 147.675 538.886 150.992 541.437 155.22C543.989 159.376 545.265 164.078 545.265 169.327C545.265 174.575 543.989 179.314 541.437 183.542C538.886 187.771 535.423 191.124 531.049 193.603C526.675 196.008 521.717 197.211 516.177 197.211ZM516.177 182.011C518.583 182.011 520.697 181.501 522.519 180.48C524.342 179.387 525.727 177.892 526.675 175.997C527.695 174.029 528.206 171.805 528.206 169.327C528.206 166.848 527.695 164.697 526.675 162.875C525.654 160.979 524.233 159.521 522.41 158.501C520.66 157.407 518.583 156.86 516.177 156.86C513.844 156.86 511.766 157.407 509.944 158.501C508.121 159.521 506.7 160.979 505.679 162.875C504.659 164.77 504.148 166.957 504.148 169.436C504.148 171.842 504.659 174.029 505.679 175.997C506.7 177.892 508.121 179.387 509.944 180.48C511.766 181.501 513.844 182.011 516.177 182.011Z" fill="#011627"/>
<path d="M462.077 196.009V142.863H478.807V196.009H462.077ZM470.497 135.537C467.872 135.537 465.685 134.662 463.936 132.912C462.259 131.09 461.42 128.903 461.42 126.351C461.42 123.727 462.259 121.54 463.936 119.79C465.685 118.041 467.872 117.166 470.497 117.166C473.121 117.166 475.272 118.041 476.948 119.79C478.625 121.54 479.463 123.727 479.463 126.351C479.463 128.903 478.625 131.09 476.948 132.912C475.272 134.662 473.121 135.537 470.497 135.537Z" fill="#011627"/>
<path d="M433.525 197.211C428.058 197.211 423.1 196.008 418.653 193.603C414.206 191.197 410.707 187.88 408.155 183.652C405.604 179.423 404.328 174.685 404.328 169.436C404.328 164.114 405.604 159.376 408.155 155.22C410.78 150.992 414.316 147.675 418.763 145.269C423.21 142.863 428.203 141.661 433.744 141.661C437.899 141.661 441.69 142.39 445.116 143.848C448.616 145.233 451.714 147.347 454.411 150.19L443.695 160.906C442.456 159.521 440.998 158.501 439.321 157.845C437.717 157.189 435.858 156.86 433.744 156.86C431.338 156.86 429.187 157.407 427.292 158.501C425.47 159.521 424.011 160.979 422.918 162.875C421.897 164.697 421.387 166.848 421.387 169.327C421.387 171.805 421.897 173.992 422.918 175.888C424.011 177.783 425.506 179.278 427.401 180.371C429.297 181.465 431.411 182.011 433.744 182.011C435.931 182.011 437.863 181.647 439.539 180.918C441.289 180.116 442.784 179.022 444.023 177.637L454.63 188.354C451.86 191.27 448.725 193.493 445.226 195.024C441.727 196.482 437.826 197.211 433.525 197.211Z" fill="#011627"/>
<path d="M372.5 197.211C367.615 197.211 363.278 196.227 359.487 194.259C355.769 192.218 352.853 189.447 350.739 185.948C348.624 182.376 347.567 178.293 347.567 173.701V142.863H364.298V173.482C364.298 175.304 364.59 176.872 365.173 178.184C365.829 179.496 366.777 180.517 368.016 181.246C369.256 181.975 370.75 182.339 372.5 182.339C374.978 182.339 376.947 181.574 378.405 180.043C379.863 178.439 380.592 176.252 380.592 173.482V142.863H397.323V173.591C397.323 178.257 396.265 182.376 394.151 185.948C392.037 189.447 389.121 192.218 385.403 194.259C381.685 196.227 377.384 197.211 372.5 197.211Z" fill="#011627"/>
<path d="M320.367 196.008V116.619H337.098V196.008H320.367Z" fill="#011627"/>
<path d="M282.949 197.211C277.482 197.211 272.525 196.008 268.078 193.603C263.704 191.124 260.241 187.771 257.689 183.542C255.138 179.314 253.862 174.575 253.862 169.327C253.862 164.078 255.138 159.376 257.689 155.22C260.241 151.065 263.704 147.784 268.078 145.378C272.452 142.9 277.409 141.661 282.949 141.661C288.49 141.661 293.447 142.863 297.821 145.269C302.195 147.675 305.658 150.992 308.21 155.22C310.761 159.376 312.037 164.078 312.037 169.327C312.037 174.575 310.761 179.314 308.21 183.542C305.658 187.771 302.195 191.124 297.821 193.603C293.447 196.008 288.49 197.211 282.949 197.211ZM282.949 182.011C285.355 182.011 287.469 181.501 289.292 180.48C291.114 179.387 292.5 177.892 293.447 175.997C294.468 174.029 294.978 171.805 294.978 169.327C294.978 166.848 294.468 164.697 293.447 162.875C292.427 160.979 291.005 159.521 289.183 158.501C287.433 157.407 285.355 156.86 282.949 156.86C280.617 156.86 278.539 157.407 276.716 158.501C274.894 159.521 273.472 160.979 272.452 162.875C271.431 164.77 270.921 166.957 270.921 169.436C270.921 171.842 271.431 174.029 272.452 175.997C273.472 177.892 274.894 179.387 276.716 180.48C278.539 181.501 280.617 182.011 282.949 182.011Z" fill="#011627"/>
<path d="M218.642 197.211C212.299 197.211 206.832 196.191 202.239 194.15C197.719 192.035 193.564 188.864 189.773 184.636L200.927 173.591C203.406 176.434 206.139 178.658 209.128 180.262C212.19 181.793 215.726 182.558 219.735 182.558C223.38 182.558 226.187 181.902 228.156 180.59C230.197 179.278 231.217 177.455 231.217 175.122C231.217 173.008 230.561 171.295 229.249 169.983C227.937 168.67 226.187 167.541 224 166.593C221.886 165.645 219.517 164.734 216.892 163.859C214.341 162.984 211.789 162 209.238 160.906C206.686 159.74 204.317 158.318 202.13 156.642C200.016 154.892 198.302 152.742 196.99 150.19C195.678 147.566 195.022 144.285 195.022 140.348C195.022 135.61 196.152 131.527 198.412 128.101C200.745 124.675 203.952 122.087 208.035 120.337C212.117 118.514 216.819 117.603 222.141 117.603C227.536 117.603 232.457 118.551 236.904 120.446C241.424 122.342 245.142 124.93 248.058 128.21L236.904 139.255C234.571 136.849 232.202 135.063 229.796 133.897C227.463 132.73 224.802 132.147 221.813 132.147C218.824 132.147 216.455 132.73 214.705 133.897C212.956 134.99 212.081 136.594 212.081 138.708C212.081 140.676 212.737 142.28 214.049 143.52C215.361 144.686 217.075 145.707 219.189 146.581C221.376 147.456 223.745 148.331 226.297 149.206C228.921 150.081 231.509 151.101 234.061 152.268C236.612 153.434 238.945 154.929 241.059 156.751C243.246 158.501 244.996 160.761 246.308 163.531C247.62 166.228 248.276 169.582 248.276 173.591C248.276 180.954 245.652 186.75 240.403 190.978C235.154 195.134 227.9 197.211 218.642 197.211Z" fill="#011627"/>
<path d="M542.047 79.9364C537.163 79.9364 532.789 78.7335 528.925 76.3278C525.134 73.922 522.109 70.6415 519.849 66.4861C517.662 62.3307 516.568 57.5921 516.568 52.2703C516.568 46.9485 517.662 42.2099 519.849 38.0545C522.109 33.8992 525.134 30.6186 528.925 28.2129C532.789 25.8071 537.163 24.6042 542.047 24.6042C545.62 24.6042 548.827 25.2968 551.67 26.6819C554.586 28.0671 556.956 29.9989 558.778 32.4776C560.601 34.8833 561.621 37.6536 561.84 40.7884V63.7523C561.621 66.887 560.601 69.6937 558.778 72.1724C557.029 74.5781 554.696 76.4736 551.78 77.8587C548.864 79.2438 545.62 79.9364 542.047 79.9364ZM545.437 64.8458C549.009 64.8458 551.889 63.6794 554.076 61.3465C556.263 58.9408 557.357 55.9154 557.357 52.2703C557.357 49.7917 556.846 47.6046 555.826 45.7092C554.878 43.8138 553.493 42.3557 551.67 41.3351C549.921 40.2416 547.879 39.6948 545.547 39.6948C543.214 39.6948 541.136 40.2416 539.314 41.3351C537.564 42.3557 536.142 43.8138 535.049 45.7092C534.028 47.6046 533.518 49.7917 533.518 52.2703C533.518 54.6761 534.028 56.8266 535.049 58.7221C536.069 60.6175 537.491 62.112 539.314 63.2055C541.136 64.299 543.177 64.8458 545.437 64.8458ZM556.701 78.8429V64.5177L559.216 51.6142L556.701 38.7107V25.6978H573.103V78.8429H556.701Z" fill="#011627"/>
<path d="M464.987 69.0012L491.669 35.4301H512.008L485.326 69.0012H464.987ZM464.987 78.8428V69.0012L476.906 64.8458H511.352V78.8428H464.987ZM466.955 39.6948V25.6978H512.008V35.4301L500.198 39.6948H466.955Z" fill="#011627"/>
<path d="M439.864 78.8428V25.6977H456.595V78.8428H439.864ZM448.284 18.3711C445.66 18.3711 443.473 17.4963 441.723 15.7467C440.046 13.9242 439.208 11.7371 439.208 9.18557C439.208 6.56112 440.046 4.37408 441.723 2.62445C443.473 0.874817 445.66 0 448.284 0C450.909 0 453.059 0.874817 454.736 2.62445C456.413 4.37408 457.251 6.56112 457.251 9.18557C457.251 11.7371 456.413 13.9242 454.736 15.7467C453.059 17.4963 450.909 18.3711 448.284 18.3711Z" fill="#011627"/>
<path d="M404.537 80.0457C399.652 80.0457 395.315 79.0615 391.524 77.0932C387.806 75.052 384.89 72.2817 382.776 68.7825C380.662 65.2103 379.604 61.1278 379.604 56.535V25.6978H396.335V56.3163C396.335 58.1389 396.627 59.7062 397.21 61.0185C397.866 62.3307 398.814 63.3513 400.053 64.0803C401.293 64.8093 402.787 65.1738 404.537 65.1738C407.015 65.1738 408.984 64.4084 410.442 62.8774C411.9 61.2736 412.629 59.0866 412.629 56.3163V25.6978H429.36V56.4257C429.36 61.0914 428.303 65.2103 426.188 68.7825C424.074 72.2817 421.158 75.052 417.44 77.0932C413.722 79.0615 409.421 80.0457 404.537 80.0457Z" fill="#011627"/>
<path d="M338.08 79.9364C333.196 79.9364 328.822 78.7335 324.958 76.3278C321.167 73.922 318.142 70.6415 315.882 66.4861C313.695 62.3307 312.601 57.5921 312.601 52.2703C312.601 46.9485 313.695 42.2099 315.882 38.0545C318.142 33.8992 321.167 30.6186 324.958 28.2129C328.822 25.8071 333.196 24.6042 338.08 24.6042C341.652 24.6042 344.86 25.2968 347.703 26.6819C350.619 28.0671 352.988 29.9989 354.811 32.4776C356.633 34.8833 357.654 37.6536 357.873 40.7884V63.7523C357.654 66.887 356.633 69.6937 354.811 72.1724C353.061 74.5781 350.728 76.4736 347.812 77.8587C344.896 79.2438 341.652 79.9364 338.08 79.9364ZM341.47 64.8458C345.042 64.8458 347.922 63.6794 350.109 61.3465C352.296 58.9408 353.389 55.9154 353.389 52.2703C353.389 49.7917 352.879 47.6046 351.858 45.7092C350.911 43.8138 349.526 42.3557 347.703 41.3351C345.953 40.2416 343.912 39.6948 341.579 39.6948C339.247 39.6948 337.169 40.2416 335.346 41.3351C333.597 42.3557 332.175 43.8138 331.082 45.7092C330.061 47.6046 329.551 49.7917 329.551 52.2703C329.551 54.6761 330.061 56.8266 331.082 58.7221C332.102 60.6175 333.524 62.112 335.346 63.2055C337.169 64.299 339.21 64.8458 341.47 64.8458ZM352.733 101.26V65.1739L355.248 52.2703L352.733 39.3668V25.6978H369.136V101.26H352.733Z" fill="#011627"/>
<path d="M270.71 78.8429V25.6978H287.441V78.8429H270.71ZM287.441 49.6459L280.442 44.1783C281.827 37.9816 284.16 33.1702 287.441 29.7438C290.721 26.3174 295.278 24.6042 301.11 24.6042C303.661 24.6042 305.885 25.0052 307.78 25.8071C309.749 26.5361 311.462 27.7026 312.92 29.3064L302.969 41.8819C302.24 41.08 301.329 40.4603 300.235 40.0229C299.141 39.5855 297.902 39.3668 296.517 39.3668C293.747 39.3668 291.523 40.2416 289.847 41.9912C288.243 43.668 287.441 46.2195 287.441 49.6459Z" fill="#011627"/>
<path d="M226.516 80.0457C220.174 80.0457 214.56 78.697 209.676 75.9997C204.864 73.3023 201.074 69.5844 198.303 64.8458C195.606 60.0343 194.257 54.5667 194.257 48.443V1.64032H211.535V49.4272C211.535 52.489 212.191 55.1499 213.503 57.4099C214.816 59.6698 216.602 61.4194 218.862 62.6588C221.194 63.8252 223.746 64.4084 226.516 64.4084C229.432 64.4084 231.984 63.8252 234.171 62.6588C236.358 61.4194 238.071 59.7062 239.31 57.5192C240.623 55.2593 241.279 52.5984 241.279 49.5365V1.64032H258.556V48.5523C258.556 54.6761 257.208 60.1072 254.51 64.8458C251.813 69.5844 248.059 73.3023 243.247 75.9997C238.436 78.697 232.859 80.0457 226.516 80.0457Z" fill="#011627"/>
</svg>
